MidiFile(type=1, ticks_per_beat=480, tracks=[
  MidiTrack([
    MetaMessage('time_signature', numerator=4, denominator=4, clocks_per_click=24, notated_32nd_notes_per_beat=8, time=0),
    MetaMessage('set_tempo', tempo=750000, time=0),
    MetaMessage('track_name', name='Bassoon', time=0),
    MetaMessage('key_signature', key='C', time=0),
    Message('control_change', channel=0, control=121, value=0, time=0),
    Message('control_change', channel=0, control=100, value=0, time=0),
    Message('control_change', channel=0, control=101, value=0, time=0),
    Message('control_change', channel=0, control=6, value=12, time=0),
    Message('control_change', channel=0, control=100, value=127, time=0),
    Message('control_change', channel=0, control=101, value=127, time=0),
    Message('program_change', channel=0, program=70, time=0),
    Message('control_change', channel=0, control=7, value=100, time=0),
    Message('control_change', channel=0, control=10, value=64, time=0),
    Message('control_change', channel=0, control=91, value=0, time=0),
    Message('control_change', channel=0, control=93, value=0, time=0),
    MetaMessage('midi_port', port=0, time=0),
    Message('note_on', channel=0, note=36, velocity=80, time=0),
    Message('note_on', channel=0, note=36, velocity=0, time=479),
    Message('note_on', channel=0, note=36, velocity=80, time=1),
    Message('note_on', channel=0, note=36, velocity=0, time=479),
    Message('note_on', channel=0, note=36, velocity=80, time=1),
    Message('note_on', channel=0, note=36, velocity=0, time=479),
    Message('note_on', channel=0, note=36, velocity=80, time=1),
    Message('note_on', channel=0, note=36, velocity=0, time=479),
    Message('note_on', channel=0, note=36, velocity=0, time=1),
    Message('note_on', channel=0, note=47, velocity=80, time=0),
    Message('note_on', channel=0, note=47, velocity=0, time=119),
    Message('note_on', channel=0, note=43, velocity=80, time=1),
    Message('note_on', channel=0, note=43, velocity=0, time=119),
    Message('note_on', channel=0, note=47, velocity=80, time=1),
    Message('note_on', channel=0, note=47, velocity=0, time=119),
    Message('note_on', channel=0, note=43, velocity=80, time=1),
    Message('note_on', channel=0, note=43, velocity=0, time=119),
    Message('note_on', channel=0, note=47, velocity=80, time=1),
    Message('note_on', channel=0, note=47, velocity=0, time=119),
    Message('note_on', channel=0, note=43, velocity=80, time=1),
    Message('note_on', channel=0, note=43, velocity=0, time=119),
    Message('note_on', channel=0, note=47, velocity=80, time=1),
    Message('note_on', channel=0, note=47, velocity=0, time=119),
    Message('note_on', channel=0, note=43, velocity=80, time=1),
    Message('note_on', channel=0, note=43, velocity=0, time=119),
    Message('note_on', channel=0, note=47, velocity=80, time=1),
    Message('note_on', channel=0, note=47, velocity=0, time=119),
    Message('note_on', channel=0, note=43, velocity=80, time=1),
    Message('note_on', channel=0, note=43, velocity=0, time=119),
    Message('note_on', channel=0, note=47, velocity=80, time=1),
    Message('note_on', channel=0, note=47, velocity=0, time=119),
    Message('note_on', channel=0, note=43, velocity=80, time=1),
    Message('note_on', channel=0, note=43, velocity=0, time=119),
    Message('note_on', channel=0, note=47, velocity=80, time=1),
    Message('note_on', channel=0, note=47, velocity=0, time=119),
    Message('note_on', channel=0, note=43, velocity=80, time=1),
    Message('note_on', channel=0, note=43, velocity=0, time=119),
    Message('note_on', channel=0, note=47, velocity=80, time=1),
    Message('note_on', channel=0, note=47, velocity=0, time=119),
    Message('note_on', channel=0, note=43, velocity=80, time=1),
    Message('note_on', channel=0, note=43, velocity=0, time=119),
    Message('note_on', channel=0, note=36, velocity=0, time=1),
    Message('note_on', channel=0, note=36, velocity=0, time=1920),
    Message('note_on', channel=0, note=36, velocity=80, time=0),
    Message('note_on', channel=0, note=36, velocity=0, time=1919),
    Message('note_on', channel=0, note=36, velocity=0, time=1),
    Message('note_on', channel=0, note=36, velocity=80, time=0),
    Message('note_on', channel=0, note=36, velocity=0, time=239),
    Message('note_on', channel=0, note=36, velocity=0, time=1681),
    Message('note_on', channel=0, note=40, velocity=80, time=0),
    Message('note_on', channel=0, note=40, velocity=0, time=239),
    Message('note_on', channel=0, note=41, velocity=80, time=1),
    Message('note_on', channel=0, note=41, velocity=0, time=239),
    Message('note_on', channel=0, note=43, velocity=80, time=1),
    Message('note_on', channel=0, note=43, velocity=0, time=239),
    Message('note_on', channel=0, note=40, velocity=80, time=241),
    Message('note_on', channel=0, note=40, velocity=0, time=239),
    Message('note_on', channel=0, note=41, velocity=80, time=1),
    Message('note_on', channel=0, note=41, velocity=0, time=239),
    Message('note_on', channel=0, note=43, velocity=80, time=1),
    Message('note_on', channel=0, note=43, velocity=0, time=239),
    Message('note_on', channel=0, note=36, velocity=0, time=241),
    Message('note_on', channel=0, note=36, velocity=80, time=0),
    Message('note_on', channel=0, note=36, velocity=0, time=0),
    Message('note_on', channel=0, note=40, velocity=80, time=0),
    Message('note_on', channel=0, note=40, velocity=0, time=239),
    Message('note_on', channel=0, note=36, velocity=80, time=1),
    Message('note_on', channel=0, note=36, velocity=0, time=239),
    Message('note_on', channel=0, note=40, velocity=80, time=1),
    Message('note_on', channel=0, note=40, velocity=0, time=239),
    Message('note_on', channel=0, note=36, velocity=80, time=1),
    Message('note_on', channel=0, note=36, velocity=0, time=239),
    Message('note_on', channel=0, note=40, velocity=80, time=1),
    Message('note_on', channel=0, note=40, velocity=0, time=239),
    Message('note_on', channel=0, note=36, velocity=80, time=1),
    Message('note_on', channel=0, note=36, velocity=0, time=239),
    Message('note_on', channel=0, note=40, velocity=80, time=1),
    Message('note_on', channel=0, note=40, velocity=0, time=479),
    Message('note_on', channel=0, note=36, velocity=0, time=1),
    Message('note_on', channel=0, note=36, velocity=0, time=1920),
    Message('note_on', channel=0, note=36, velocity=80, time=0),
    Message('note_on', channel=0, note=36, velocity=0, time=0),
    Message('note_on', channel=0, note=40, velocity=80, time=0),
    Message('note_on', channel=0, note=40, velocity=0, time=239),
    Message('note_on', channel=0, note=36, velocity=80, time=1),
    Message('note_on', channel=0, note=36, velocity=0, time=239),
    Message('note_on', channel=0, note=40, velocity=80, time=1),
    Message('note_on', channel=0, note=40, velocity=0, time=239),
    Message('note_on', channel=0, note=36, velocity=80, time=1),
    Message('note_on', channel=0, note=36, velocity=0, time=239),
    Message('note_on', channel=0, note=40, velocity=80, time=1),
    Message('note_on', channel=0, note=40, velocity=0, time=239),
    Message('note_on', channel=0, note=36, velocity=80, time=1),
    Message('note_on', channel=0, note=36, velocity=0, time=239),
    Message('note_on', channel=0, note=40, velocity=80, time=1),
    Message('note_on', channel=0, note=40, velocity=0, time=479),
    Message('note_on', channel=0, note=36, velocity=0, time=1),
    Message('note_on', channel=0, note=45, velocity=80, time=0),
    Message('note_on', channel=0, note=45, velocity=0, time=479),
    Message('note_on', channel=0, note=36, velocity=0, time=1441),
    Message('note_on', channel=0, note=36, velocity=80, time=1680),
    Message('note_on', channel=0, note=36, velocity=0, time=119),
    Message('note_on', channel=0, note=36, velocity=80, time=1),
    Message('note_on', channel=0, note=36, velocity=0, time=119),
    Message('note_on', channel=0, note=36, velocity=0, time=1),
    Message('note_on', channel=0, note=45, velocity=80, time=0),
    Message('note_on', channel=0, note=45, velocity=0, time=479),
    Message('note_on', channel=0, note=36, velocity=0, time=1441),
    Message('note_on', channel=0, note=45, velocity=80, time=0),
    Message('note_on', channel=0, note=45, velocity=0, time=479),
    Message('note_on', channel=0, note=36, velocity=0, time=1441),
    Message('note_on', channel=0, note=40, velocity=80, time=240),
    Message('note_on', channel=0, note=40, velocity=0, time=239),
    Message('note_on', channel=0, note=41, velocity=80, time=1),
    Message('note_on', channel=0, note=41, velocity=0, time=239),
    Message('note_on', channel=0, note=43, velocity=80, time=1),
    Message('note_on', channel=0, note=43, velocity=0, time=239),
    Message('note_on', channel=0, note=40, velocity=80, time=241),
    Message('note_on', channel=0, note=40, velocity=0, time=239),
    Message('note_on', channel=0, note=41, velocity=80, time=1),
    Message('note_on', channel=0, note=41, velocity=0, time=239),
    Message('note_on', channel=0, note=43, velocity=80, time=1),
    Message('note_on', channel=0, note=43, velocity=0, time=239),
    Message('note_on', channel=0, note=36, velocity=0, time=1),
    MetaMessage('end_of_track', time=1)]),
  MidiTrack([
    MetaMessage('track_name', name='French Horn', time=0),
    MetaMessage('key_signature', key='C', time=0),
    Message('control_change', channel=0, control=121, value=0, time=0),
    Message('control_change', channel=0, control=100, value=0, time=0),
    Message('control_change', channel=0, control=101, value=0, time=0),
    Message('control_change', channel=0, control=6, value=12, time=0),
    Message('control_change', channel=0, control=100, value=127, time=0),
    Message('control_change', channel=0, control=101, value=127, time=0),
    Message('program_change', channel=0, program=60, time=0),
    Message('control_change', channel=0, control=7, value=100, time=0),
    Message('control_change', channel=0, control=10, value=64, time=0),
    Message('control_change', channel=0, control=91, value=0, time=0),
    Message('control_change', channel=0, control=93, value=0, time=0),
    MetaMessage('midi_port', port=0, time=0),
    Message('note_on', channel=0, note=59, velocity=80, time=0),
    Message('note_on', channel=0, note=59, velocity=0, time=119),
    Message('note_on', channel=0, note=55, velocity=80, time=1),
    Message('note_on', channel=0, note=55, velocity=0, time=359),
    Message('note_on', channel=0, note=55, velocity=80, time=1),
    Message('note_on', channel=0, note=55, velocity=0, time=119),
    Message('note_on', channel=0, note=53, velocity=80, time=1),
    Message('note_on', channel=0, note=53, velocity=0, time=119),
    Message('note_on', channel=0, note=55, velocity=80, time=1),
    Message('note_on', channel=0, note=55, velocity=0, time=239),
    Message('note_on', channel=0, note=55, velocity=80, time=361),
    Message('note_on', channel=0, note=55, velocity=0, time=599),
    Message('note_on', channel=0, note=48, velocity=0, time=1),
    Message('note_on', channel=0, note=48, velocity=0, time=1920),
    Message('note_on', channel=0, note=48, velocity=0, time=1920),
    Message('note_on', channel=0, note=59, velocity=80, time=0),
    Message('note_on', channel=0, note=59, velocity=0, time=119),
    Message('note_on', channel=0, note=55, velocity=80, time=1),
    Message('note_on', channel=0, note=55, velocity=0, time=119),
    Message('note_on', channel=0, note=59, velocity=80, time=1),
    Message('note_on', channel=0, note=59, velocity=0, time=119),
    Message('note_on', channel=0, note=55, velocity=80, time=1),
    Message('note_on', channel=0, note=55, velocity=0, time=119),
    Message('note_on', channel=0, note=59, velocity=80, time=1),
    Message('note_on', channel=0, note=59, velocity=0, time=119),
    Message('note_on', channel=0, note=55, velocity=80, time=1),
    Message('note_on', channel=0, note=55, velocity=0, time=119),
    Message('note_on', channel=0, note=59, velocity=80, time=1),
    Message('note_on', channel=0, note=59, velocity=0, time=119),
    Message('note_on', channel=0, note=55, velocity=80, time=1),
    Message('note_on', channel=0, note=55, velocity=0, time=119),
    Message('note_on', channel=0, note=59, velocity=80, time=1),
    Message('note_on', channel=0, note=59, velocity=0, time=119),
    Message('note_on', channel=0, note=55, velocity=80, time=1),
    Message('note_on', channel=0, note=55, velocity=0, time=119),
    Message('note_on', channel=0, note=59, velocity=80, time=1),
    Message('note_on', channel=0, note=59, velocity=0, time=119),
    Message('note_on', channel=0, note=55, velocity=80, time=1),
    Message('note_on', channel=0, note=55, velocity=0, time=119),
    Message('note_on', channel=0, note=59, velocity=80, time=1),
    Message('note_on', channel=0, note=59, velocity=0, time=119),
    Message('note_on', channel=0, note=55, velocity=80, time=1),
    Message('note_on', channel=0, note=55, velocity=0, time=119),
    Message('note_on', channel=0, note=59, velocity=80, time=1),
    Message('note_on', channel=0, note=59, velocity=0, time=119),
    Message('note_on', channel=0, note=55, velocity=80, time=1),
    Message('note_on', channel=0, note=55, velocity=0, time=119),
    Message('note_on', channel=0, note=48, velocity=0, time=1),
    Message('note_on', channel=0, note=48, velocity=80, time=0),
    Message('note_on', channel=0, note=48, velocity=0, time=1919),
    Message('note_on', channel=0, note=48, velocity=0, time=1),
    Message('note_on', channel=0, note=57, velocity=80, time=0),
    Message('note_on', channel=0, note=57, velocity=0, time=479),
    Message('note_on', channel=0, note=48, velocity=0, time=1441),
    Message('note_on', channel=0, note=50, velocity=80, time=0),
    Message('note_on', channel=0, note=50, velocity=0, time=479),
    Message('note_on', channel=0, note=50, velocity=80, time=1),
    Message('note_on', channel=0, note=50, velocity=0, time=479),
    Message('note_on', channel=0, note=50, velocity=80, time=1),
    Message('note_on', channel=0, note=50, velocity=0, time=479),
    Message('note_on', channel=0, note=48, velocity=0, time=481),
    Message('note_on', channel=0, note=52, velocity=80, time=0),
    Message('note_on', channel=0, note=52, velocity=0, time=239),
    Message('note_on', channel=0, note=53, velocity=80, time=1),
    Message('note_on', channel=0, note=53, velocity=0, time=239),
    Message('note_on', channel=0, note=55, velocity=80, time=1),
    Message('note_on', channel=0, note=55, velocity=0, time=239),
    Message('note_on', channel=0, note=52, velocity=80, time=241),
    Message('note_on', channel=0, note=52, velocity=0, time=239),
    Message('note_on', channel=0, note=53, velocity=80, time=1),
    Message('note_on', channel=0, note=53, velocity=0, time=239),
    Message('note_on', channel=0, note=55, velocity=80, time=1),
    Message('note_on', channel=0, note=55, velocity=0, time=239),
    Message('note_on', channel=0, note=48, velocity=0, time=241),
    Message('note_on', channel=0, note=57, velocity=80, time=0),
    Message('note_on', channel=0, note=57, velocity=0, time=479),
    Message('note_on', channel=0, note=48, velocity=0, time=1441),
    Message('note_on', channel=0, note=59, velocity=80, time=0),
    Message('note_on', channel=0, note=59, velocity=0, time=119),
    Message('note_on', channel=0, note=55, velocity=80, time=1),
    Message('note_on', channel=0, note=55, velocity=0, time=359),
    Message('note_on', channel=0, note=55, velocity=80, time=1),
    Message('note_on', channel=0, note=55, velocity=0, time=119),
    Message('note_on', channel=0, note=53, velocity=80, time=1),
    Message('note_on', channel=0, note=53, velocity=0, time=119),
    Message('note_on', channel=0, note=55, velocity=80, time=1),
    Message('note_on', channel=0, note=55, velocity=0, time=239),
    Message('note_on', channel=0, note=55, velocity=80, time=361),
    Message('note_on', channel=0, note=55, velocity=0, time=599),
    Message('note_on', channel=0, note=48, velocity=0, time=1),
    Message('note_on', channel=0, note=53, velocity=80, time=0),
    Message('note_on', channel=0, note=53, velocity=0, time=1919),
    Message('note_on', channel=0, note=48, velocity=0, time=1),
    Message('note_on', channel=0, note=48, velocity=80, time=0),
    Message('note_on', channel=0, note=48, velocity=0, time=0),
    Message('note_on', channel=0, note=52, velocity=80, time=0),
    Message('note_on', channel=0, note=52, velocity=0, time=239),
    Message('note_on', channel=0, note=53, velocity=80, time=1),
    Message('note_on', channel=0, note=53, velocity=0, time=239),
    Message('note_on', channel=0, note=52, velocity=80, time=1),
    Message('note_on', channel=0, note=52, velocity=0, time=239),
    Message('note_on', channel=0, note=48, velocity=80, time=1),
    Message('note_on', channel=0, note=48, velocity=0, time=239),
    Message('note_on', channel=0, note=52, velocity=80, time=1),
    Message('note_on', channel=0, note=52, velocity=0, time=239),
    Message('note_on', channel=0, note=53, velocity=80, time=1),
    Message('note_on', channel=0, note=53, velocity=0, time=239),
    Message('note_on', channel=0, note=52, velocity=80, time=1),
    Message('note_on', channel=0, note=52, velocity=0, time=479),
    Message('note_on', channel=0, note=48, velocity=0, time=1),
    Message('note_on', channel=0, note=48, velocity=80, time=1680),
    Message('note_on', channel=0, note=48, velocity=0, time=119),
    Message('note_on', channel=0, note=48, velocity=80, time=1),
    Message('note_on', channel=0, note=48, velocity=0, time=119),
    Message('note_on', channel=0, note=48, velocity=0, time=1),
    Message('note_on', channel=0, note=53, velocity=80, time=0),
    Message('note_on', channel=0, note=53, velocity=0, time=119),
    Message('note_on', channel=0, note=55, velocity=80, time=1),
    Message('note_on', channel=0, note=55, velocity=0, time=119),
    Message('note_on', channel=0, note=59, velocity=80, time=1),
    Message('note_on', channel=0, note=59, velocity=0, time=119),
    Message('note_on', channel=0, note=55, velocity=80, time=1),
    Message('note_on', channel=0, note=55, velocity=0, time=119),
    Message('note_on', channel=0, note=59, velocity=80, time=1),
    Message('note_on', channel=0, note=59, velocity=0, time=119),
    Message('note_on', channel=0, note=55, velocity=80, time=1),
    Message('note_on', channel=0, note=55, velocity=0, time=119),
    Message('note_on', channel=0, note=53, velocity=80, time=1),
    Message('note_on', channel=0, note=53, velocity=0, time=119),
    Message('note_on', channel=0, note=55, velocity=80, time=1),
    Message('note_on', channel=0, note=55, velocity=0, time=119),
    Message('note_on', channel=0, note=59, velocity=80, time=1),
    Message('note_on', channel=0, note=59, velocity=0, time=119),
    Message('note_on', channel=0, note=55, velocity=80, time=1),
    Message('note_on', channel=0, note=55, velocity=0, time=119),
    Message('note_on', channel=0, note=59, velocity=80, time=1),
    Message('note_on', channel=0, note=59, velocity=0, time=119),
    Message('note_on', channel=0, note=55, velocity=80, time=1),
    Message('note_on', channel=0, note=55, velocity=0, time=119),
    Message('note_on', channel=0, note=53, velocity=80, time=1),
    Message('note_on', channel=0, note=53, velocity=0, time=119),
    Message('note_on', channel=0, note=55, velocity=80, time=1),
    Message('note_on', channel=0, note=55, velocity=0, time=119),
    Message('note_on', channel=0, note=59, velocity=80, time=1),
    Message('note_on', channel=0, note=59, velocity=0, time=119),
    Message('note_on', channel=0, note=55, velocity=80, time=1),
    Message('note_on', channel=0, note=55, velocity=0, time=119),
    Message('note_on', channel=0, note=48, velocity=0, time=1),
    MetaMessage('end_of_track', time=1)]),
  MidiTrack([
    MetaMessage('track_name', name='Clarinet', time=0),
    MetaMessage('key_signature', key='C', time=0),
    Message('control_change', channel=0, control=121, value=0, time=0),
    Message('control_change', channel=0, control=100, value=0, time=0),
    Message('control_change', channel=0, control=101, value=0, time=0),
    Message('control_change', channel=0, control=6, value=12, time=0),
    Message('control_change', channel=0, control=100, value=127, time=0),
    Message('control_change', channel=0, control=101, value=127, time=0),
    Message('program_change', channel=0, program=71, time=0),
    Message('control_change', channel=0, control=7, value=100, time=0),
    Message('control_change', channel=0, control=10, value=64, time=0),
    Message('control_change', channel=0, control=91, value=0, time=0),
    Message('control_change', channel=0, control=93, value=0, time=0),
    MetaMessage('midi_port', port=0, time=0),
    Message('note_on', channel=0, note=60, velocity=0, time=1920),
    Message('note_on', channel=0, note=64, velocity=80, time=240),
    Message('note_on', channel=0, note=64, velocity=0, time=239),
    Message('note_on', channel=0, note=65, velocity=80, time=1),
    Message('note_on', channel=0, note=65, velocity=0, time=239),
    Message('note_on', channel=0, note=67, velocity=80, time=1),
    Message('note_on', channel=0, note=67, velocity=0, time=239),
    Message('note_on', channel=0, note=64, velocity=80, time=241),
    Message('note_on', channel=0, note=64, velocity=0, time=239),
    Message('note_on', channel=0, note=65, velocity=80, time=1),
    Message('note_on', channel=0, note=65, velocity=0, time=239),
    Message('note_on', channel=0, note=67, velocity=80, time=1),
    Message('note_on', channel=0, note=67, velocity=0, time=239),
    Message('note_on', channel=0, note=60, velocity=0, time=1),
    Message('note_on', channel=0, note=71, velocity=80, time=0),
    Message('note_on', channel=0, note=71, velocity=0, time=119),
    Message('note_on', channel=0, note=67, velocity=80, time=1),
    Message('note_on', channel=0, note=67, velocity=0, time=359),
    Message('note_on', channel=0, note=67, velocity=80, time=1),
    Message('note_on', channel=0, note=67, velocity=0, time=119),
    Message('note_on', channel=0, note=65, velocity=80, time=1),
    Message('note_on', channel=0, note=65, velocity=0, time=119),
    Message('note_on', channel=0, note=67, velocity=80, time=1),
    Message('note_on', channel=0, note=67, velocity=0, time=239),
    Message('note_on', channel=0, note=67, velocity=80, time=361),
    Message('note_on', channel=0, note=67, velocity=0, time=599),
    Message('note_on', channel=0, note=60, velocity=0, time=1),
    Message('note_on', channel=0, note=60, velocity=80, time=0),
    Message('note_on', channel=0, note=60, velocity=0, time=239),
    Message('note_on', channel=0, note=60, velocity=0, time=1681),
    Message('note_on', channel=0, note=65, velocity=80, time=0),
    Message('note_on', channel=0, note=65, velocity=0, time=1919),
    Message('note_on', channel=0, note=60, velocity=0, time=1),
    Message('note_on', channel=0, note=60, velocity=80, time=0),
    Message('note_on', channel=0, note=60, velocity=0, time=0),
    Message('note_on', channel=0, note=64, velocity=80, time=0),
    Message('note_on', channel=0, note=64, velocity=0, time=239),
    Message('note_on', channel=0, note=60, velocity=80, time=1),
    Message('note_on', channel=0, note=60, velocity=0, time=239),
    Message('note_on', channel=0, note=64, velocity=80, time=1),
    Message('note_on', channel=0, note=64, velocity=0, time=239),
    Message('note_on', channel=0, note=60, velocity=80, time=1),
    Message('note_on', channel=0, note=60, velocity=0, time=239),
    Message('note_on', channel=0, note=64, velocity=80, time=1),
    Message('note_on', channel=0, note=64, velocity=0, time=239),
    Message('note_on', channel=0, note=60, velocity=80, time=1),
    Message('note_on', channel=0, note=60, velocity=0, time=239),
    Message('note_on', channel=0, note=64, velocity=80, time=1),
    Message('note_on', channel=0, note=64, velocity=0, time=479),
    Message('note_on', channel=0, note=60, velocity=0, time=1),
    Message('note_on', channel=0, note=71, velocity=80, time=0),
    Message('note_on', channel=0, note=71, velocity=0, time=119),
    Message('note_on', channel=0, note=67, velocity=80, time=1),
    Message('note_on', channel=0, note=67, velocity=0, time=119),
    Message('note_on', channel=0, note=71, velocity=80, time=1),
    Message('note_on', channel=0, note=71, velocity=0, time=119),
    Message('note_on', channel=0, note=67, velocity=80, time=1),
    Message('note_on', channel=0, note=67, velocity=0, time=119),
    Message('note_on', channel=0, note=71, velocity=80, time=1),
    Message('note_on', channel=0, note=71, velocity=0, time=119),
    Message('note_on', channel=0, note=67, velocity=80, time=1),
    Message('note_on', channel=0, note=67, velocity=0, time=119),
    Message('note_on', channel=0, note=71, velocity=80, time=1),
    Message('note_on', channel=0, note=71, velocity=0, time=119),
    Message('note_on', channel=0, note=67, velocity=80, time=1),
    Message('note_on', channel=0, note=67, velocity=0, time=119),
    Message('note_on', channel=0, note=71, velocity=80, time=1),
    Message('note_on', channel=0, note=71, velocity=0, time=119),
    Message('note_on', channel=0, note=67, velocity=80, time=1),
    Message('note_on', channel=0, note=67, velocity=0, time=119),
    Message('note_on', channel=0, note=71, velocity=80, time=1),
    Message('note_on', channel=0, note=71, velocity=0, time=119),
    Message('note_on', channel=0, note=67, velocity=80, time=1),
    Message('note_on', channel=0, note=67, velocity=0, time=119),
    Message('note_on', channel=0, note=71, velocity=80, time=1),
    Message('note_on', channel=0, note=71, velocity=0, time=119),
    Message('note_on', channel=0, note=67, velocity=80, time=1),
    Message('note_on', channel=0, note=67, velocity=0, time=119),
    Message('note_on', channel=0, note=71, velocity=80, time=1),
    Message('note_on', channel=0, note=71, velocity=0, time=119),
    Message('note_on', channel=0, note=67, velocity=80, time=1),
    Message('note_on', channel=0, note=67, velocity=0, time=119),
    Message('note_on', channel=0, note=60, velocity=0, time=1),
    Message('note_on', channel=0, note=67, velocity=80, time=0),
    Message('note_on', channel=0, note=67, velocity=0, time=1919),
    Message('note_on', channel=0, note=60, velocity=0, time=1),
    Message('note_on', channel=0, note=60, velocity=80, time=0),
    Message('note_on', channel=0, note=60, velocity=0, time=239),
    Message('note_on', channel=0, note=60, velocity=0, time=1681),
    Message('note_on', channel=0, note=64, velocity=80, time=240),
    Message('note_on', channel=0, note=64, velocity=0, time=239),
    Message('note_on', channel=0, note=65, velocity=80, time=1),
    Message('note_on', channel=0, note=65, velocity=0, time=239),
    Message('note_on', channel=0, note=64, velocity=80, time=1),
    Message('note_on', channel=0, note=64, velocity=0, time=239),
    Message('note_on', channel=0, note=64, velocity=80, time=241),
    Message('note_on', channel=0, note=64, velocity=0, time=239),
    Message('note_on', channel=0, note=65, velocity=80, time=1),
    Message('note_on', channel=0, note=65, velocity=0, time=239),
    Message('note_on', channel=0, note=64, velocity=80, time=1),
    Message('note_on', channel=0, note=64, velocity=0, time=239),
    Message('note_on', channel=0, note=60, velocity=0, time=1),
    Message('note_on', channel=0, note=60, velocity=0, time=1920),
    Message('note_on', channel=0, note=60, velocity=80, time=0),
    Message('note_on', channel=0, note=60, velocity=0, time=239),
    Message('note_on', channel=0, note=60, velocity=0, time=1681),
    Message('note_on', channel=0, note=60, velocity=80, time=1680),
    Message('note_on', channel=0, note=60, velocity=0, time=119),
    Message('note_on', channel=0, note=60, velocity=80, time=1),
    Message('note_on', channel=0, note=60, velocity=0, time=119),
    Message('note_on', channel=0, note=60, velocity=0, time=1),
    Message('note_on', channel=0, note=60, velocity=80, time=0),
    Message('note_on', channel=0, note=60, velocity=0, time=0),
    Message('note_on', channel=0, note=64, velocity=80, time=0),
    Message('note_on', channel=0, note=64, velocity=0, time=239),
    Message('note_on', channel=0, note=60, velocity=80, time=1),
    Message('note_on', channel=0, note=60, velocity=0, time=239),
    Message('note_on', channel=0, note=64, velocity=80, time=1),
    Message('note_on', channel=0, note=64, velocity=0, time=239),
    Message('note_on', channel=0, note=60, velocity=80, time=1),
    Message('note_on', channel=0, note=60, velocity=0, time=239),
    Message('note_on', channel=0, note=64, velocity=80, time=1),
    Message('note_on', channel=0, note=64, velocity=0, time=239),
    Message('note_on', channel=0, note=60, velocity=80, time=1),
    Message('note_on', channel=0, note=60, velocity=0, time=239),
    Message('note_on', channel=0, note=64, velocity=80, time=1),
    Message('note_on', channel=0, note=64, velocity=0, time=479),
    Message('note_on', channel=0, note=60, velocity=0, time=1),
    MetaMessage('end_of_track', time=1)])
])
